<svg height="511pt" viewBox="-53 1 511 511.99899" width="511pt" xmlns="http://www.w3.org/2000/svg" fill="#ffffff"><path d="m263.664062 427.417969h-214.960937c-4.199219 0-7.605469 3.40625-7.605469 7.605469 0 4.199218 3.40625 7.601562 7.605469 7.601562h214.960937c4.199219 0 7.601563-3.402344 7.601563-7.601562 0-4.199219-3.402344-7.605469-7.601563-7.605469zm0 0"/><path d="m216.460938 460.617188h-167.757813c-4.199219 0-7.605469 3.40625-7.605469 7.605468 0 4.199219 3.40625 7.605469 7.605469 7.605469h167.757813c4.199218 0 7.605468-3.40625 7.605468-7.605469 0-4.199218-3.40625-7.605468-7.605468-7.605468zm0 0"/><path d="m359.636719 0h-312.648438c-25.632812 0-46.488281 20.855469-46.488281 46.488281v419.019531c0 25.636719 20.855469 46.492188 46.488281 46.492188h312.648438c25.636719 0 46.492187-20.855469 46.492187-46.492188v-419.019531c0-25.632812-20.855468-46.488281-46.492187-46.488281zm0 496.792969h-312.648438c-17.246093 0-31.28125-14.035157-31.28125-31.28125v-59.296875h88.484375c4.199219 0 7.605469-3.40625 7.605469-7.605469s-3.40625-7.605469-7.605469-7.605469h-88.484375v-344.515625c0-17.246093 14.035157-31.28125 31.28125-31.28125h312.648438c17.25 0 31.28125 14.035157 31.28125 31.28125v344.515625h-256.3125c-4.199219 0-7.601563 3.40625-7.601563 7.605469s3.402344 7.605469 7.601563 7.605469h256.316406v59.292968c-.003906 17.25-14.035156 31.285157-31.285156 31.285157zm0 0"/><path d="m135.890625 262.570312c2.738281-5.792968 4.125-12.238281 4.125-19.164062 0-7.390625-1.933594-12.558594-5.917969-15.800781-3.503906-2.839844-8.242187-4.222657-14.496094-4.222657-4.539062 0-8.558593.855469-11.9375 2.550782-4.707031 2.351562-7.570312 6.738281-8.054687 12.351562-.007813.058594-.011719.121094-.015625.179688-.109375 1.75-.363281 3.6875-.753906 5.753906-.28125 1.476562-.804688 2.8125-1.597656 4.082031-.59375.949219-1.613282 1.824219-3.039063 2.609375-.8125.445313-2.769531 1.195313-6.8125 1.195313-4.648437 0-7.917969-1.035157-10.007813-3.164063-2.605468-2.652344-3.15625-7.746094-3.15625-11.550781v-54.144531c0-3.824219.542969-8.941406 3.109376-11.605469 2.019531-2.089844 5.179687-3.109375 9.664062-3.109375 4.378906 0 6.394531.75 7.199219 1.191406 1.480469.816406 2.570312 1.742188 3.230469 2.75.789062 1.203125 1.292968 2.382813 1.496093 3.496094.332031 1.816406.558594 3.390625.671875 4.679688.296875 5.675781 3.085938 10.109374 7.875 12.503906 3.382813 1.691406 7.53125 2.546875 12.324219 2.546875 6.074219 0 10.71875-1.320313 14.195313-4.035157 4.054687-3.171874 6.023437-8.402343 6.023437-15.988281 0-6.707031-1.40625-12.960937-4.179687-18.597656-2.765626-5.609375-6.691407-10.414063-11.660157-14.28125-4.789062-3.726563-10.539062-6.632813-17.089843-8.644531-6.390626-1.957032-13.410157-2.953125-20.859376-2.953125-6.785156 0-13.328124.921875-19.445312 2.742187-6.441406 1.921875-12.171875 5.007813-17.039062 9.179688-4.957032 4.246094-8.910157 9.792968-11.753907 16.476562-2.785156 6.542969-4.195312 14.5-4.195312 23.648438v54.140625c0 9.117187 1.371093 17.050781 4.070312 23.578125 2.777344 6.714844 6.710938 12.28125 11.683594 16.546875 4.871094 4.175781 10.605469 7.265625 17.046875 9.179687 6.113281 1.820313 12.652344 2.742188 19.4375 2.742188 7.476562 0 14.519531-1.035156 20.9375-3.074219 6.546875-2.082031 12.328125-5.101563 17.183594-8.96875 5.035156-4.011719 8.984375-8.996094 11.738281-14.820313zm-21.21875 2.929688c-3.398437 2.707031-7.539063 4.851562-12.316406 6.367188-4.921875 1.566406-10.414063 2.359374-16.324219 2.359374-5.316406 0-10.398438-.707031-15.105469-2.109374-4.4375-1.320313-8.195312-3.332032-11.480469-6.148438-3.183593-2.730469-5.648437-6.269531-7.53125-10.816406-1.933593-4.675782-2.914062-10.652344-2.914062-17.761719v-54.144531c0-7.085938 1.003906-13.039063 2.984375-17.691406 1.917969-4.511719 4.492187-8.175782 7.652344-10.882813 3.285156-2.816406 7.042969-4.828125 11.484375-6.148437 4.707031-1.402344 9.789062-2.113282 15.101562-2.113282 5.9375 0 11.457032.769532 16.402344 2.285156 4.777344 1.46875 8.886719 3.523438 12.210938 6.105469 3.183593 2.480469 5.59375 5.429688 7.355468 9.003907 1.761719 3.570312 2.617188 7.457031 2.617188 11.875 0 2.453124-.3125 3.675781-.480469 4.164062-.53125.234375-1.839844.652344-4.53125.652344-2.5 0-4.066406-.355469-5.019531-.722656-.003906-.085938-.011719-.175782-.019532-.265626-.148437-1.796874-.441406-3.898437-.871093-6.253906-.570313-3.132812-1.828125-6.199218-3.746094-9.121094-2.035156-3.105468-4.933594-5.703124-8.613281-7.730468-3.765625-2.070313-8.515625-3.074219-14.527344-3.074219-8.707031 0-15.644531 2.609375-20.613281 7.757813-4.890625 5.074218-7.367188 12.53125-7.367188 22.164062v54.144531c0 9.664063 2.527344 17.136719 7.515625 22.207031 5.019532 5.117188 12.039063 7.710938 20.851563 7.710938 5.757812 0 10.386719-1.003906 14.144531-3.074219 3.722656-2.046875 6.621094-4.695312 8.605469-7.875 1.789062-2.863281 3.011719-5.992187 3.644531-9.3125.5-2.644531.828125-5.171875.984375-7.515625.003906-.054687.011719-.105468.015625-.148437 1.222656-.527344 2.839844-.796875 4.820312-.796875 2.917969 0 4.230469.46875 4.695313.699218.164063.421876.507813 1.605469.507813 4.117188 0 4.660156-.894532 8.921875-2.664063 12.664062-1.777344 3.757813-4.222656 6.84375-7.46875 9.429688zm0 0"/><path d="m166.695312 281.226562c4.59375 2.667969 10.035157 4.828126 16.179688 6.414063 6.097656 1.578125 12.710938 2.378906 19.664062 2.378906 7.484376 0 14.503907-1.039062 20.859376-3.082031 6.566406-2.113281 12.347656-5.28125 17.175781-9.421875 4.921875-4.21875 8.828125-9.53125 11.605469-15.785156 2.753906-6.191407 4.148437-13.402344 4.148437-21.425781 0-9.722657-1.910156-17.957032-5.679687-24.476563-3.582032-6.195313-8.113282-11.441406-13.472657-15.59375-5.09375-3.945313-10.691406-7.214844-16.644531-9.730469-5.285156-2.226562-10.253906-4.386718-14.777344-6.425781-3.960937-1.785156-7.285156-3.753906-9.871094-5.855469-1.332031-1.082031-1.847656-2.175781-1.847656-3.898437 0-2.167969.6875-3.492188 2.457032-4.722657 2.46875-1.710937 6.570312-2.617187 11.867187-2.617187 3.300781 0 6.042969.296875 8.144531.882813 2.359375.660156 4.351563 1.363281 5.910156 2.089843 1.785157.835938 3.34375 1.613281 4.621094 2.308594 2.546875 1.386719 5.273438 2.09375 8.105469 2.09375 3.308594 0 6.425781-1.03125 9.03125-2.980469 2.089844-1.570312 3.832031-3.519531 5.183594-5.804687 1.199219-2.027344 2.089843-4.152344 2.652343-6.3125.558594-2.132813.828126-4.0625.828126-5.898438 0-5.714843-2.53125-10.5625-7.332032-14.03125-3.460937-2.488281-7.582031-4.464843-12.25-5.867187-4.347656-1.300782-8.925781-2.183594-13.617187-2.617188-4.417969-.40625-8.210938-.613281-11.273438-.613281-6.140625 0-12.386719.757813-18.570312 2.25-6.492188 1.566406-12.425781 4.160156-17.636719 7.707031-5.394531 3.675782-9.859375 8.523438-13.261719 14.410156-3.511719 6.0625-5.292969 13.484376-5.292969 22.050782 0 9.058594 1.960938 16.757812 5.828126 22.882812 3.613281 5.722656 8.171874 10.582032 13.539062 14.4375 5.058594 3.632813 10.609375 6.699219 16.496094 9.109375 5.144531 2.109375 9.960937 4.328125 14.3125 6.59375 3.910156 2.042969 7.191406 4.34375 9.742187 6.84375 1.640625 1.605469 2.375 3.550781 2.375 6.308594 0 3.976563-1.414062 5.410156-2.9375 6.363281-3.128906 1.960938-6.792969 2.914063-11.195312 2.914063-3.765625 0-6.820313-.539063-9.085938-1.605469-2.769531-1.304688-5.15625-2.730469-7.089843-4.25-2.292969-1.792969-4.394532-3.480469-6.242188-5.011719-3.269531-2.703125-6.824219-4.074219-10.574219-4.074219-3.085937 0-6.070312.945313-8.628906 2.734376-1.933594 1.355468-3.679687 3.042968-5.175781 5.011718-1.5 1.964844-2.691406 4.152344-3.539063 6.503906-.875 2.4375-1.320312 4.773438-1.320312 6.9375 0 4.601563 1.699219 9.066407 5.046875 13.269532 2.839844 3.578125 6.726562 6.808594 11.542968 9.605468zm-.960937-24.664062c.324219-.898438.753906-1.691406 1.324219-2.4375.535156-.699219 1.097656-1.261719 1.746094-1.726562.148437.0625.4375.21875.839843.550781 1.953125 1.621093 4.164063 3.394531 6.5625 5.273437 2.828125 2.214844 6.1875 4.246094 9.996094 6.039063 4.300781 2.023437 9.539063 3.050781 15.558594 3.050781 7.242187 0 13.726562-1.761719 19.273437-5.234375 4.589844-2.878906 10.066406-8.558594 10.066406-19.253906 0-6.785157-2.398437-12.722657-6.945312-17.175781-3.621094-3.542969-8.109375-6.722657-13.351562-9.457032-4.761719-2.480468-10-4.898437-15.574219-7.183594-4.792969-1.960937-9.296875-4.445312-13.386719-7.386718-3.777344-2.710938-6.988281-6.144532-9.554688-10.207032-2.308593-3.65625-3.484374-8.625-3.484374-14.761718 0-5.855469 1.09375-10.710938 3.25-14.433594 2.285156-3.949219 5.117187-7.046875 8.660156-9.457031 3.6875-2.511719 7.941406-4.359375 12.644531-5.492188 5.015625-1.210937 10.066406-1.824219 15-1.824219 2.601563 0 5.925781.183594 9.878906.546876 3.683594.339843 7.261719 1.027343 10.644531 2.039062 3.042969.917969 5.648438 2.140625 7.726563 3.636719 1.019531.738281 1.019531 1.160156 1.019531 1.695312 0 .289063-.042968.9375-.335937 2.058594-.207031.792969-.554688 1.609375-1.03125 2.414063-.316407.535156-.679688.953124-1.132813 1.3125-.191406 0-.4375-.03125-.8125-.238282-1.558594-.847656-3.398437-1.769531-5.472656-2.738281-2.316406-1.078125-5.09375-2.070313-8.253906-2.953125-3.484375-.972656-7.484375-1.445312-12.226563-1.445312-8.535156 0-15.445312 1.796874-20.546875 5.339843-5.878906 4.085938-8.988281 10.035157-8.988281 17.207031 0 6.304688 2.582031 11.734376 7.464844 15.703126 3.609375 2.929687 8.058593 5.597656 13.214843 7.917968 4.628907 2.089844 9.714844 4.300782 15.113282 6.578125 4.738281 1.996094 9.195312 4.601563 13.242187 7.734375 3.792969 2.941406 7.03125 6.707032 9.621094 11.1875 2.414063 4.171875 3.636719 9.847656 3.636719 16.863282 0 5.882812-.953125 11.011718-2.835938 15.25-1.882812 4.230468-4.371094 7.636718-7.609375 10.414062-3.285156 2.816406-7.300781 5-11.933593 6.492188-4.851563 1.558593-10.304688 2.347656-16.203126 2.347656-5.664062 0-11-.636719-15.855468-1.890625-4.800782-1.242188-8.953125-2.871094-12.347656-4.84375-3.171876-1.839844-5.621094-3.832031-7.28125-5.921875-1.15625-1.449219-1.742188-2.730469-1.742188-3.804688 0-.140625.03125-.695312.421875-1.785156zm0 0"/><path d="m283.210938 281.230469c4.617187 2.679687 10.0625 4.835937 16.175781 6.414062 6.089843 1.574219 12.703125 2.371094 19.65625 2.371094 7.5 0 14.519531-1.039063 20.855469-3.082031 6.5625-2.105469 12.339843-5.273438 17.1875-9.417969 4.925781-4.226563 8.828124-9.539063 11.597656-15.78125 2.757812-6.195313 4.152344-13.40625 4.152344-21.429687 0-9.730469-1.910157-17.96875-5.699219-24.507813-.476563-.816406-.964844-1.609375-1.464844-2.390625-2.257813-3.542969-6.957031-4.585938-10.5-2.324219-3.539063 2.257813-4.578125 6.957031-2.320313 10.5.390626.613281.777344 1.242188 1.136719 1.859375 2.417969 4.171875 3.640625 9.84375 3.640625 16.863282 0 5.878906-.957031 11.011718-2.84375 15.253906-1.847656 4.167968-4.40625 7.671875-7.59375 10.40625-3.296875 2.820312-7.3125 5-11.949218 6.488281-4.835938 1.5625-10.285157 2.351563-16.199219 2.351563-5.667969 0-11.003907-.632813-15.855469-1.886719-4.777344-1.234375-8.933594-2.863281-12.34375-4.839844-3.167969-1.839844-5.621094-3.835937-7.289062-5.929687-1.148438-1.441407-1.730469-2.71875-1.730469-3.800782 0-.144531.027343-.710937.425781-1.804687.316406-.878907.746094-1.671875 1.3125-2.417969.53125-.699219 1.109375-1.273438 1.742188-1.730469.152343.066407.445312.226563.847656.5625 1.882812 1.558594 4.03125 3.277344 6.5625 5.261719 2.824218 2.214844 6.183594 4.246094 9.996094 6.039062 4.316406 2.027344 9.550781 3.054688 15.558593 3.054688 7.238281 0 13.71875-1.761719 19.265625-5.238281 4.59375-2.875 10.066406-8.550781 10.066406-19.246094 0-6.785156-2.398437-12.722656-6.933593-17.171875-3.621094-3.550781-8.113281-6.734375-13.359375-9.464844-4.816406-2.511718-10.058594-4.929687-15.570313-7.1875-4.808593-1.96875-9.316406-4.457031-13.390625-7.378906-3.820312-2.75-6.949218-6.09375-9.558594-10.214844-2.308593-3.660156-3.480468-8.625-3.480468-14.757812 0-5.867188 1.09375-10.722656 3.246094-14.4375 2.292968-3.957032 5.125-7.050782 8.671874-9.464844 3.679688-2.503906 7.929688-4.351562 12.640626-5.492188 5.015624-1.210937 10.058593-1.824218 14.992187-1.824218 2.636719 0 5.960937.1875 9.890625.558594 3.652344.332031 7.234375 1.019531 10.632812 2.03125 3.035157.910156 5.644532 2.140624 7.730469 3.636718 1.019531.734375 1.019531 1.179688 1.019531 1.703125 0 .289063-.046874.941407-.324218 2.027344-.222656.832031-.566406 1.636719-1.035156 2.4375-.324219.542969-.691407.96875-1.136719 1.3125-.195313 0-.433594-.027344-.84375-.253906-1.601563-.863281-3.433594-1.777344-5.445313-2.714844-2.363281-1.101563-5.148437-2.097656-8.238281-2.949219-3.472656-.976562-7.476563-1.453125-12.25-1.453125-8.53125 0-15.4375 1.796875-20.546875 5.339844-5.878906 4.097656-8.984375 10.046875-8.984375 17.210937 0 6.304688 2.585937 11.734376 7.46875 15.691407 3.601563 2.933593 8.050781 5.601562 13.222656 7.929687 4.800781 2.160156 9.886719 4.371094 15.113281 6.570313.570313.242187 1.136719.492187 1.699219.753906 3.816407 1.753906 8.332031.089844 10.089844-3.726563 1.753906-3.816406.085937-8.332031-3.730469-10.085937-.710937-.332031-1.425781-.644531-2.15625-.953125-5.117187-2.15625-10.085937-4.316406-14.769531-6.425781-3.96875-1.785157-7.289063-3.757813-9.882813-5.867188-1.332031-1.078125-1.847656-2.167969-1.847656-3.886719 0-2.164062.695313-3.492187 2.460938-4.722656 2.464844-1.710937 6.570312-2.617187 11.863281-2.617187 3.316406 0 6.050781.296875 8.167969.890625 2.3125.640625 4.296875 1.34375 5.898437 2.089844 1.746094.8125 3.3125 1.589843 4.59375 2.28125 2.542969 1.398437 5.277344 2.109374 8.128907 2.109374 3.285156 0 6.394531-1.019531 9.019531-2.96875 2.089843-1.566406 3.832031-3.515624 5.195312-5.816406 1.183594-2.007812 2.070313-4.117187 2.65625-6.324218.542969-2.101563.820313-4.082032.820313-5.878907 0-5.71875-2.53125-10.570312-7.34375-14.046875-3.476563-2.492187-7.59375-4.460937-12.253906-5.863281-4.378907-1.300781-8.953126-2.179687-13.585938-2.601563-4.386719-.414062-8.1875-.625-11.296875-.625-6.132813 0-12.378906.757813-18.5625 2.25-6.503906 1.570313-12.4375 4.164063-17.628906 7.707032-5.394531 3.667968-9.859375 8.515625-13.273438 14.40625-3.511719 6.0625-5.292969 13.484375-5.292969 22.0625 0 9.050781 1.960938 16.746094 5.832032 22.882812 3.625 5.726563 8.175781 10.582032 13.539062 14.441406 5.042969 3.617188 10.59375 6.679688 16.496094 9.101563 5.089844 2.085937 9.90625 4.304687 14.3125 6.601563 3.914062 2.039062 7.191406 4.339843 9.738281 6.835937 1.640625 1.609375 2.375 3.554687 2.375 6.3125 0 3.976563-1.410156 5.40625-2.929687 6.359375-3.136719 1.964844-6.796875 2.917969-11.195313 2.917969-3.757812 0-6.820312-.542969-9.089843-1.609375-2.773438-1.304688-5.15625-2.734375-7.082032-4.246094-2.429687-1.898438-4.472656-3.542969-6.253906-5.015625-3.269531-2.703125-6.824219-4.074219-10.566406-4.074219-3.125 0-6.023438.914063-8.640625 2.734375-1.925781 1.351563-3.667969 3.039063-5.175781 5.019531-1.503907 1.976563-2.691407 4.164063-3.519532 6.472657-.878906 2.429687-1.328125 4.773437-1.328125 6.960937 0 4.609375 1.695313 9.074219 5.046875 13.277344 2.851563 3.582031 6.734375 6.8125 11.550782 9.605469zm0 0"/></svg>